<svg width="156" height="48" viewBox="0 0 156 48" fill="none" xmlns="http://www.w3.org/2000/svg">
<path d="M148.375 5.8663H150.466V14.3138H153.34V5.8663H155.651V3.91814H153.34V2.10641L153.496 1.94816H155.999V0H153.461C151.623 0 150.469 0.995907 150.469 2.84311V3.91814H148.378V5.8663H148.375ZM139.949 9.10232C139.949 6.99591 140.985 5.80355 142.547 5.80355C144.092 5.80355 145.128 6.99591 145.128 9.10232C145.128 11.2115 144.095 12.4229 142.547 12.4229C140.982 12.4229 139.949 11.2115 139.949 9.10232ZM137.053 9.10232C137.053 12.7012 139.498 14.5512 142.547 14.5512C145.598 14.5512 148.043 12.704 148.043 9.10232C148.043 5.52524 145.601 3.67804 142.547 3.67804C139.498 3.67804 137.053 5.52797 137.053 9.10232ZM121.451 3.91814V4.21555L125.597 14.7285L124.191 17.9891V18.2865H127.218L132.773 4.21282V3.91542H129.741L127.199 11.5498H127.003L124.483 3.91542H121.451V3.91814ZM112.866 3.91814V5.8663H114.959V11.4707C114.959 13.3179 116.113 14.3111 117.949 14.3111H120.235V12.2647H117.986L117.831 12.1064V5.8663H120.179V3.91814H117.831V0.635743H117.541L114.959 1.71078V3.91814H112.866ZM108.972 14.3138H111.846V3.91814H108.972V14.3138ZM108.717 2.48568H112.101V0H108.717V2.48568ZM98.1815 6.87858C98.1815 8.72851 99.5501 9.56071 101.525 9.93997L103.479 10.2974C104.415 10.4748 104.925 10.7558 104.925 11.3915C104.925 12.0682 104.22 12.5648 102.95 12.5648C101.7 12.5648 100.701 12.0873 100.565 10.8759H97.9077V11.1733C98.2003 13.1023 99.8426 14.5539 102.99 14.5539C106.157 14.5539 107.684 13.1023 107.684 11.236C107.684 9.34789 106.256 8.57299 104.166 8.17462L102.212 7.79809C101.469 7.65894 100.943 7.42156 100.943 6.76398C100.943 6.10914 101.627 5.68895 102.819 5.68895C104.013 5.68895 104.853 6.12824 104.949 7.15962H107.609V6.86221C107.316 5.03411 105.73 3.70259 102.781 3.70259C99.8426 3.69713 98.1815 5.02865 98.1815 6.87858ZM91.1209 3.91814V14.3138H93.9951V8.76671C93.9951 6.91678 94.7545 6.10368 96.3593 6.10368H97.2959H97.4918V3.87722H97.2959H96.3969C95.1275 3.87722 94.4432 4.35471 94.0514 5.20873H93.8528V3.91814H91.1209ZM82.0075 8.03274C82.1255 6.76126 82.9682 5.70805 84.4898 5.70805C86.0543 5.70805 86.8165 6.76126 86.897 8.03274H82.0075ZM79.0958 9.10232C79.0958 12.6821 81.5003 14.5512 84.5515 14.5512C87.6403 14.5512 89.1458 12.6849 89.5162 11.2333V10.9359H86.8567C86.6635 11.5716 86.0946 12.5239 84.5515 12.5239C82.9682 12.5239 82.0477 11.2742 82.0075 9.80082H89.7308V8.94679C89.7308 5.52797 87.5598 3.68076 84.4898 3.68076C81.4976 3.67804 79.0958 5.52797 79.0958 9.10232ZM67.83 3.91814V4.21555L71.8205 14.3138H75.006L78.9965 4.21555V3.91814H75.9855L73.5219 11.3124H73.3233L70.841 3.91814H67.83ZM64.0784 14.3138H66.9525V3.91814H64.0784V14.3138ZM63.8234 2.48568H67.2048V0H63.8234V2.48568ZM52.2652 3.91814V14.3138H55.1393V8.4884C55.1393 6.60027 56.2342 5.8663 57.5036 5.8663C58.6602 5.8663 59.3606 6.50205 59.3606 7.77353V14.3138H62.2347V7.49522C62.2347 5.03138 60.6917 3.69986 58.3838 3.69986C56.3308 3.69986 55.5499 4.69304 55.2171 5.20873H55.0212V3.91814H52.2652ZM38.2461 0V9.10232C38.2461 12.4638 40.4359 14.5512 44.2681 14.5512C48.1808 14.5512 50.2927 12.4638 50.2927 9.10232V0H47.2818V9.2824C47.2818 11.1705 46.2056 12.2428 44.2681 12.2428C42.3332 12.2428 41.2571 11.1678 41.2571 9.2824V0H38.2461Z" fill="black"/>
<path d="M135.899 20.6693V20.9667L140.043 31.4824L138.637 34.743V35.0404H141.666L147.219 20.9667V20.6693H144.186L141.645 28.3037H141.449L138.926 20.6693H135.899ZM127.315 25.5806C127.315 23.6107 128.369 22.5793 129.797 22.5793C131.243 22.5793 132.279 23.6134 132.279 25.5806C132.279 27.5479 131.243 28.5793 129.797 28.5793C128.372 28.5793 127.315 27.5479 127.315 25.5806ZM124.422 25.5806C124.422 28.9995 126.689 30.7075 129.115 30.7075C130.521 30.7075 131.383 30.1891 131.93 29.6134H132.126V30.7675C132.126 32.2764 131.327 33.2123 129.663 33.2123C128.039 33.2123 127.355 32.3364 127.159 31.3815H124.481V31.6789C124.872 33.5861 126.574 35.2396 129.757 35.2396C133.066 35.2396 134.998 33.5097 134.998 30.5083V20.6693H133.004L132.459 21.8617H132.263C131.775 21.2259 130.857 20.4483 129.118 20.4483C126.711 20.451 124.422 22.1591 124.422 25.5806ZM115.445 25.8562C115.445 23.7498 116.478 22.5547 118.043 22.5547C119.589 22.5547 120.622 23.7471 120.622 25.8562C120.622 27.9654 119.589 29.1768 118.043 29.1768C116.481 29.1768 115.445 27.9654 115.445 25.8562ZM112.552 25.8562C112.552 29.4579 114.997 31.3023 118.045 31.3023C121.097 31.3023 123.541 29.4551 123.541 25.8562C123.541 22.2791 121.097 20.4292 118.045 20.4292C114.994 20.4319 112.552 22.2791 112.552 25.8562ZM108.291 16.7539V31.0677H108.35H111.167V16.7539H108.291ZM98.8068 25.8562C98.8068 23.7498 99.8426 22.5547 101.404 22.5547C102.95 22.5547 103.986 23.7471 103.986 25.8562C103.986 27.9654 102.95 29.1768 101.404 29.1768C99.8399 29.1768 98.8068 27.9654 98.8068 25.8562ZM95.9112 25.8562C95.9112 29.4579 98.3532 31.3023 101.404 31.3023C104.456 31.3023 106.9 29.4551 106.9 25.8562C106.9 22.2791 104.458 20.4292 101.404 20.4292C98.3532 20.4319 95.9112 22.2791 95.9112 25.8562ZM84.6079 20.6693V31.065H87.482V25.2423C87.482 23.3542 88.5769 22.6202 89.8462 22.6202C91.0029 22.6202 91.706 23.2532 91.706 24.5274V31.0677H94.5801V24.2464C94.5801 21.7826 93.0343 20.4483 90.7291 20.4483C88.6762 20.4483 87.8926 21.4415 87.5598 21.9599H87.3639V20.6693H84.6079ZM72.7974 16.7539V31.0677H75.6742V25.2423C75.6742 23.3542 76.7691 22.6202 78.0384 22.6202C79.1924 22.6202 79.8982 23.2341 79.8982 24.5274V31.0677H82.7723V24.2464C82.7723 21.7826 81.2077 20.4483 78.9186 20.4483C76.9059 20.4483 76.1438 21.4251 75.8674 21.7826H75.6742V16.7539H72.7974ZM61.164 25.8562C61.164 29.4742 63.5685 31.3023 66.5983 31.3023C69.5905 31.3023 71.3133 29.5124 71.5468 27.4469V27.1468H68.9652C68.8095 28.1809 68.2218 29.1741 66.6976 29.1741C65.0928 29.1741 64.0596 27.9626 64.0596 25.8535C64.0596 23.7471 65.0928 22.552 66.6976 22.552C68.1843 22.552 68.7908 23.567 68.8874 24.3828H71.4502V24.0854C71.214 22.1973 69.5529 20.4265 66.5983 20.4265C63.5658 20.4319 61.164 22.26 61.164 25.8562ZM52.5577 24.7839C52.6785 23.5124 53.5184 22.4565 55.0427 22.4565C56.6072 22.4565 57.3694 23.5124 57.4445 24.7839H52.5577ZM49.6433 25.8562C49.6433 29.4333 52.0478 31.3023 55.0991 31.3023C58.1879 31.3023 59.6934 29.4333 60.0637 27.9817V27.6843H57.4043C57.2111 28.3201 56.6421 29.2751 55.0991 29.2751C53.5157 29.2751 52.598 28.0227 52.555 26.552H60.2811V25.698C60.2811 22.2791 58.1127 20.4319 55.04 20.4319C52.0505 20.4319 49.6433 22.2791 49.6433 25.8562ZM38.2461 16.7539V19.0213H42.9961V31.0677H46.007V19.0213H50.7597V16.7539H38.2461Z" fill="black"/>
<path d="M97.4162 37.4252V47.8208H100.29V41.9954C100.29 40.1073 101.385 39.3733 102.657 39.3733C103.811 39.3733 104.514 40.0091 104.514 41.2806V47.8208H107.391V41.0023C107.391 38.5384 105.843 37.2069 103.538 37.2069C101.485 37.2069 100.701 38.2001 100.371 38.7158H100.172V37.4252H97.4162ZM92.6448 47.8208H95.5189V37.4252H92.6448V47.8208ZM92.3925 35.9927H95.7765V33.5098H92.3925V35.9927ZM83.7701 44.7212C83.7701 44.0036 84.3176 43.608 85.1388 43.5289L87.97 43.2315V43.3897C87.97 45.0214 86.8778 45.9763 85.3884 45.9763C84.3552 45.9736 83.7701 45.4361 83.7701 44.7212ZM81.2449 40.9231H83.9822C84.0975 39.8099 84.8033 39.1933 86.0754 39.1933C87.3259 39.1933 87.97 39.8099 87.97 41.0814V41.4607L84.5484 41.8372C82.5169 42.0555 80.8933 42.9886 80.8933 44.9395C80.8933 46.8467 82.4391 48.0009 84.6879 48.0009C86.6416 48.0009 87.4816 47.1059 87.8734 46.5903H88.0693V47.8235H90.8065V41.3215C90.8065 38.5766 88.8314 37.1878 86.1156 37.1878C83.4159 37.1878 81.5401 38.5793 81.2449 40.6257V40.9231ZM74.1683 37.4252V47.8208H77.0424V42.2737C77.0424 40.4238 77.8045 39.6107 79.4093 39.6107H80.3459H80.5418V37.3843H80.3459H79.4469C78.1749 37.3843 77.4905 37.8617 77.1014 38.7158H76.9055V37.4252H74.1683ZM62.3551 33.5098V47.8208H65.2292V41.9954C65.2292 40.1073 66.3241 39.3733 67.5934 39.3733C68.7501 39.3733 69.4505 39.99 69.4505 41.2806V47.8208H72.3246V41.0023C72.3246 38.5384 70.7601 37.2069 68.4737 37.2069C66.4583 37.2069 65.6961 38.181 65.4224 38.5384H65.2265V33.5098H62.3551ZM53.4777 44.7212C53.4777 44.0036 54.0252 43.608 54.8464 43.5289L57.6803 43.2315V43.3897C57.6803 45.0214 56.5853 45.9763 55.0986 45.9763C54.0628 45.9736 53.4777 45.4361 53.4777 44.7212ZM50.9552 40.9231H53.6924C53.8105 39.8099 54.5136 39.1933 55.7856 39.1933C57.0389 39.1933 57.6829 39.8099 57.6829 41.0814V41.4607L54.2613 41.8372C52.2299 42.0555 50.6063 42.9886 50.6063 44.9395C50.6063 46.8467 52.152 48.0009 54.4009 48.0009C56.3546 48.0009 57.1945 47.1059 57.589 46.5903H57.7822V47.8235H60.5195V41.3215C60.5195 38.5766 58.5444 37.1878 55.8286 37.1878C53.1289 37.1878 51.2557 38.5793 50.9605 40.6257V40.9231H50.9552ZM41.3157 41.698H44.5628C45.8939 41.698 46.9083 42.2737 46.9083 43.6271C46.9083 44.9804 45.8912 45.5562 44.5628 45.5562H41.3157V41.698ZM41.3157 35.7744H44.5226C45.7946 35.7744 46.7124 36.3283 46.7124 37.5998C46.7124 38.8549 45.7946 39.4306 44.5226 39.4306H41.3157V35.7744ZM38.3262 33.5098V47.8208H45.3035C47.8073 47.8208 49.8576 46.5084 49.8576 43.9845C49.8576 41.4607 48.0193 40.8031 47.1015 40.5821V40.3856C47.963 40.1455 49.6644 39.4306 49.6644 37.065C49.6644 34.6803 47.7456 33.5098 45.3008 33.5098H38.3262Z" fill="black"/>
<path d="M28.3173 42.6816H0V47.9968H28.3173V42.6816Z" fill="#D12149"/>
<path d="M28.3173 35.5938H0V40.9089H28.3173V35.5938Z" fill="#D12149"/>
<path d="M28.3173 7.24219H0V12.5573H28.3173V7.24219Z" fill="#D12149"/>
<path d="M28.3173 21.418H0V26.7331H28.3173V21.418Z" fill="#D12149"/>
<path d="M6.53455 28.5039H0V33.819H6.53455V28.5039Z" fill="#D12149"/>
<path d="M6.53455 14.3301H0V19.6452H6.53455V14.3301Z" fill="#D12149"/>
<path d="M13.0691 0.152344H0V5.46749H13.0691V0.152344Z" fill="#D12149"/>
<path d="M28.3171 0.152344H15.248V5.46749H28.3171V0.152344Z" fill="#D12149"/>
</svg>
